<svg width="24" height="24" viewBox="0 0 24 24" fill="none" xmlns="http://www.w3.org/2000/svg">
<path d="M6.66667 6.10352e-05C2.99067 6.10352e-05 0 2.99073 0 6.66673V17.3334C0 21.0094 2.99067 24.0001 6.66667 24.0001H17.3333C21.0093 24.0001 24 21.0094 24 17.3334V6.66673C24 2.99073 21.0093 6.10352e-05 17.3333 6.10352e-05H6.66667ZM6.66667 2.66673H17.3333C19.5387 2.66673 21.3333 4.46139 21.3333 6.66673V17.3334C21.3333 19.5387 19.5387 21.3334 17.3333 21.3334H6.66667C4.46133 21.3334 2.66667 19.5387 2.66667 17.3334V6.66673C2.66667 4.46139 4.46133 2.66673 6.66667 2.66673ZM18.6667 4.00006C18.313 4.00006 17.9739 4.14054 17.7239 4.39059C17.4738 4.64063 17.3333 4.97977 17.3333 5.33339C17.3333 5.68702 17.4738 6.02615 17.7239 6.2762C17.9739 6.52625 18.313 6.66673 18.6667 6.66673C19.0203 6.66673 19.3594 6.52625 19.6095 6.2762C19.8595 6.02615 20 5.68702 20 5.33339C20 4.97977 19.8595 4.64063 19.6095 4.39059C19.3594 4.14054 19.0203 4.00006 18.6667 4.00006ZM12 5.33339C8.324 5.33339 5.33333 8.32406 5.33333 12.0001C5.33333 15.6761 8.324 18.6667 12 18.6667C15.676 18.6667 18.6667 15.6761 18.6667 12.0001C18.6667 8.32406 15.676 5.33339 12 5.33339ZM12 8.00006C14.2053 8.00006 16 9.79473 16 12.0001C16 14.2054 14.2053 16.0001 12 16.0001C9.79467 16.0001 8 14.2054 8 12.0001C8 9.79473 9.79467 8.00006 12 8.00006Z" fill="#5C8EE6"/>
</svg>
