<svg width="24" height="18" viewBox="0 0 24 18" fill="none" xmlns="http://www.w3.org/2000/svg">
<path d="M0.46875 5.95312C1.54688 6.79688 2.90625 7.82812 7.6875 11.2969C8.625 12 10.3594 13.5469 12 13.5469C13.6875 13.5469 15.375 12 16.3594 11.2969C21.1406 7.82812 22.5 6.79688 23.5781 5.95312C23.7656 5.8125 24 5.95312 24 6.1875V15.75C24 17.0156 23.0156 18 21.75 18H2.25C1.03125 18 0 17.0156 0 15.75V6.1875C0 5.95312 0.28125 5.8125 0.46875 5.95312ZM12 12C10.9219 12.0469 9.375 10.6406 8.57812 10.0781C2.34375 5.57812 1.875 5.15625 0.46875 4.03125C0.1875 3.84375 0 3.51562 0 3.14062V2.25C0 1.03125 1.03125 0 2.25 0H21.75C23.0156 0 24 1.03125 24 2.25V3.14062C24 3.51562 23.8594 3.84375 23.5781 4.03125C22.1719 5.15625 21.7031 5.57812 15.4688 10.0781C14.6719 10.6406 13.125 12.0469 12 12Z" fill="#5C8EE6"/>
</svg>
