<svg width="18" height="25" viewBox="0 0 18 25" fill="none" xmlns="http://www.w3.org/2000/svg">
<path d="M9.9375 23.5313C9.51562 24.1875 8.53125 24.1875 8.10938 23.5313C1.26562 13.6875 0 12.6563 0 9.00003C0 4.03128 4.03125 3.05176e-05 9 3.05176e-05C14.0156 3.05176e-05 18 4.03128 18 9.00003C18 12.6563 16.7812 13.6875 9.9375 23.5313ZM9 12.75C11.1094 12.75 12.75 11.1094 12.75 9.00003C12.75 6.93753 11.1094 5.25003 9 5.25003C6.9375 5.25003 5.25 6.93753 5.25 9.00003C5.25 11.1094 6.9375 12.75 9 12.75Z" fill="#5C8EE6"/>
</svg>
