<svg width="30" height="18" viewBox="0 0 30 18" fill="none" xmlns="http://www.w3.org/2000/svg">
<path d="M29.1659 16.1352C27.9683 13.9799 24.8833 11.3901 23.6097 10.2632C23.2612 9.95462 23.2238 9.4208 23.5411 9.07958C25.9716 6.46778 27.9156 3.46678 28.5847 1.65339C28.88 0.852322 28.2688 0.00593685 27.4078 0.00593685H24.9066C24.0822 0.00593685 23.5997 0.301838 23.3698 0.773015C21.3498 4.9123 19.617 6.7037 18.4041 7.75069C17.725 8.33716 16.666 7.85132 16.666 6.95895C16.666 5.23953 16.666 3.01693 16.666 1.44079C16.666 0.67638 16.0409 0.0579196 15.2698 0.0579196L10.7007 0.00593685C10.1255 0.00593685 9.79699 0.657053 10.1422 1.11357L10.8966 2.19654C11.1805 2.57175 11.3338 3.02826 11.3338 3.49677L11.3298 8.37381C11.3298 9.2222 10.3015 9.63673 9.69102 9.04226C7.62571 7.03093 5.83364 2.92363 5.18852 0.959619C5.00192 0.391142 4.46943 0.00726974 3.86563 0.00593685L1.40178 -6.10352e-05C0.477425 -6.10352e-05 -0.19835 0.876314 0.0528998 1.75869C2.30415 9.66072 6.92328 17.1782 15.1552 17.9933C15.9663 18.0732 16.666 17.4201 16.666 16.6117V14.0486C16.666 13.3135 17.2425 12.6817 17.9836 12.6631C18.0096 12.6624 18.0356 12.6624 18.0616 12.6624C20.2388 12.6624 22.6774 15.8313 23.5304 17.3135C23.7757 17.74 24.2342 17.9999 24.73 17.9999H28.0442C29.0113 17.9999 29.6317 16.9743 29.1659 16.1352Z" fill="#5C8EE6"/>
</svg>
